<?xml version="1.0" standalone="no"?><!-- Generator: Gravit.io --><svg xmlns="http://www.w3.org/2000/svg" xmlns:xlink="http://www.w3.org/1999/xlink" style="isolation:isolate" viewBox="0 0 400 390" width="400" height="390"><defs><clipPath id="_clipPath_2cNk03g4qRzIE3Iy5aZvjMTiqjFnnxRA"><rect width="400" height="390"/></clipPath></defs><g clip-path="url(#_clipPath_2cNk03g4qRzIE3Iy5aZvjMTiqjFnnxRA)"><rect width="400" height="390" style="fill:none"/><g style="isolation:isolate" id="Layer 1"><g id="Group"><g id="Group"><path d=" M 34.996 272.5 L 44.996 272.5 L 44.996 297.5 L 34.996 307.5 L 34.996 272.5 Z " fill="rgb(235,235,235)"/><rect x="29.996" y="267.5" width="20" height="10" transform="matrix(1,0,0,1,0,0)" fill="rgb(175,175,185)"/><path d=" M 34.996 297.5 Q 34.775 302.498 29.996 302.5 Q 25.217 302.502 24.996 297.5 L 19.996 297.5 Q 19.934 307.461 29.996 307.5 Q 40.058 307.538 39.996 297.5 L 34.996 297.5 Z " fill="rgb(235,235,235)"/><path d=" M 44.996 297.5 Q 45.016 312.574 29.996 312.5 Q 14.976 312.425 14.996 297.5 L 19.996 297.5 Q 25.715 307.618 29.996 307.5 Q 34.277 307.382 39.996 297.5 L 44.996 297.5 Z " fill="rgb(235,235,235)"/><path d=" M 14.996 292.5 Q 14.811 287.619 9.996 287.5 L 9.996 277.5 Q 24.972 277.514 24.996 292.5 L 14.996 292.5 Z " fill="rgb(235,235,235)"/><path d=" M 14.996 287.5 L 14.996 297.5 L 24.996 307.5 L 24.996 292.5 L 14.996 287.5 Z " fill="rgb(235,235,235)"/></g><g id="Group"><rect x="51.246" y="221.25" width="7.5" height="2.5" transform="matrix(1,0,0,1,0,0)" fill="rgb(157,157,157)"/><path d=" M 24.996 222.5 L 49.996 217.5 Q 57.153 215.839 59.996 217.5 L 59.996 222.5 L 49.996 222.5 L 24.996 232.5 L 14.996 232.5 L 14.996 222.5 L 24.996 222.5 Z " fill="rgb(176,176,176)"/><path d=" M 24.996 227.5 Q 27.212 220.619 33.178 217.5 C 39.143 214.381 60.769 211.822 64.996 207.5 L 28.632 212.5 Q 20.045 213.368 14.996 222.5" fill="rgb(176,176,176)"/></g><path d=" M 5.996 272.5 Q 107.71 274.813 119.996 232.5 Q 120.141 227.519 114.996 227.5 L 5.996 227.5 L 5.996 272.5 Z " fill="rgb(255,255,255)"/></g></g><path d=" M 400 0 L 400 390 L 0 390 L 0 0 L 240 0 L 240 10 L 10 10 L 10 380 L 390 380 L 390 160 L 360 160 L 360 130 L 330 130 L 330 160 L 300 160 L 300 130 L 330 130 L 330 100 L 330 70 L 300 70 L 300 100 L 270 100 L 270 130 L 240 130 L 240 100 L 270 100 L 270 70 L 270 40 L 240 40 L 240 10 L 240 0 L 400 0 Z " fill="rgb(255,255,255)"/></g></svg>