<?xml version="1.0" standalone="no"?><!-- Generator: Gravit.io --><svg xmlns="http://www.w3.org/2000/svg" xmlns:xlink="http://www.w3.org/1999/xlink" style="isolation:isolate" viewBox="0 0 400 390" width="400" height="390"><defs><clipPath id="_clipPath_qga5PNoRbH5w5UFzCrspaya34ub3ZvHG"><rect width="400" height="390"/></clipPath></defs><g clip-path="url(#_clipPath_qga5PNoRbH5w5UFzCrspaya34ub3ZvHG)"><rect width="400" height="390" style="fill:none"/><path d=" M 135 275 Q 135.025 254.872 145 255 Q 154.975 255.128 155 275 L 160 275 Q 159.717 250.292 145 250 Q 130.283 249.708 130 275 L 130 280 L 135 280 L 135 275 Z " fill="rgb(170,169,169)"/><path d=" M 130 380 L 135 380 L 135 270 L 130 275.238" fill="rgb(170,169,169)"/><defs><filter id="U6heodVpAAMh4dQkiXXcftRNnCAj4gLb" x="-200%" y="-200%" width="400%" height="400%"><feOffset xmlns="http://www.w3.org/2000/svg" in="SourceAlpha" result="offOut" dx="3" dy="2"/><feGaussianBlur xmlns="http://www.w3.org/2000/svg" in="offOut" result="blurOut" stdDeviation="0"/><feComponentTransfer xmlns="http://www.w3.org/2000/svg" in="blurOut" result="opacOut"><feFuncA xmlns="http://www.w3.org/2000/svg" type="table" tableValues="0 0.5"/></feComponentTransfer><feBlend xmlns="http://www.w3.org/2000/svg" in="SourceGraphic" in2="opacOut" mode="normal"/></filter></defs><g filter="url(#U6heodVpAAMh4dQkiXXcftRNnCAj4gLb)"><path d=" M 83.431 348.287 L 78.431 353.287 Q 73.556 358.412 73.431 363.287 Q 73.305 368.162 73.431 383.287 L 68.431 383.287 L 68.431 363.287 Q 69.294 352.153 83.431 343.287 L 83.431 348.287 Z " fill="rgb(170,139,26)"/></g><defs><filter id="27T6Gm0oYrzSfSveq7aWTe3UqWOlj4K2" x="-200%" y="-200%" width="400%" height="400%"><feOffset xmlns="http://www.w3.org/2000/svg" in="SourceAlpha" result="offOut" dx="3" dy="0"/><feGaussianBlur xmlns="http://www.w3.org/2000/svg" in="offOut" result="blurOut" stdDeviation="0"/><feComponentTransfer xmlns="http://www.w3.org/2000/svg" in="blurOut" result="opacOut"><feFuncA xmlns="http://www.w3.org/2000/svg" type="table" tableValues="0 0.5"/></feComponentTransfer><feBlend xmlns="http://www.w3.org/2000/svg" in="SourceGraphic" in2="opacOut" mode="normal"/></filter></defs><g filter="url(#27T6Gm0oYrzSfSveq7aWTe3UqWOlj4K2)"><rect x="81.193" y="338.817" width="8.492" height="11.438" transform="matrix(0.645,0.764,-0.764,0.645,293.698,57.076)" fill="rgb(104,95,95)"/></g><rect x="64" y="375" width="15" height="8.287" transform="matrix(1,0,0,1,0,0)" fill="rgb(145,137,137)"/><rect x="125" y="375" width="15" height="8.287" transform="matrix(1,0,0,1,0,0)" fill="rgb(235,235,235)"/><defs><filter id="aBmjs6GOMjjgxwN6SFQH2gypfacyfDCy" x="-200%" y="-200%" width="400%" height="400%"><feOffset xmlns="http://www.w3.org/2000/svg" in="SourceAlpha" result="offOut" dx="4" dy="5"/><feGaussianBlur xmlns="http://www.w3.org/2000/svg" in="offOut" result="blurOut" stdDeviation="0"/><feComponentTransfer xmlns="http://www.w3.org/2000/svg" in="blurOut" result="opacOut"><feFuncA xmlns="http://www.w3.org/2000/svg" type="table" tableValues="0 0.5"/></feComponentTransfer><feBlend xmlns="http://www.w3.org/2000/svg" in="SourceGraphic" in2="opacOut" mode="normal"/></filter></defs><g filter="url(#aBmjs6GOMjjgxwN6SFQH2gypfacyfDCy)"><path d=" M 0 380 L 10 380 L 10 10 L 240 10 L 240 100 L 270 100 L 270 40 L 300 40 L 300 70 L 330 70 L 330 100 L 300 100 L 300 130 L 330 130 L 330 100 L 360 100 L 360 130 L 330 130 L 330 160 L 390 160 L 390 380 L 395 380 L 395 0 L 0 0 L 0 380 Z " fill="rgb(255,255,255)"/></g><defs><filter id="yGaJjurcpWb6IDDWqP7gKIpQT0YZbl28" x="-200%" y="-200%" width="400%" height="400%"><feOffset xmlns="http://www.w3.org/2000/svg" in="SourceAlpha" result="offOut" dx="0" dy="0"/><feGaussianBlur xmlns="http://www.w3.org/2000/svg" in="offOut" result="blurOut" stdDeviation="2.5"/><feComponentTransfer xmlns="http://www.w3.org/2000/svg" in="blurOut" result="opacOut"><feFuncA xmlns="http://www.w3.org/2000/svg" type="table" tableValues="0 0.5"/></feComponentTransfer><feBlend xmlns="http://www.w3.org/2000/svg" in="SourceGraphic" in2="opacOut" mode="normal"/></filter></defs><g filter="url(#yGaJjurcpWb6IDDWqP7gKIpQT0YZbl28)"><path d=" M 10 10 L 10 380 L 390 380 L 390 160 L 360 160 L 330 160 L 330 130 L 360 130 L 360 100 L 330 100 L 330 130 L 300 130 L 300 100 L 330 100 L 330 70 L 300 70 L 300 40 L 270 40 L 270 70 L 270 100 L 240 100 L 240 70 L 240 40 L 240 10 L 30 10 L 30 0 L 400 0 L 400 390 L 0 390 L 0 0 L 30 0 L 30 10 L 10 10 Z " fill="rgb(255,255,255)"/></g><g id="Group"><defs><filter id="iPEtKcdOUAB9wC9mE7xzbtI95dBnpJtD" x="-200%" y="-200%" width="400%" height="400%"><feOffset xmlns="http://www.w3.org/2000/svg" in="SourceAlpha" result="offOut" dx="4" dy="4"/><feGaussianBlur xmlns="http://www.w3.org/2000/svg" in="offOut" result="blurOut" stdDeviation="0"/><feComponentTransfer xmlns="http://www.w3.org/2000/svg" in="blurOut" result="opacOut"><feFuncA xmlns="http://www.w3.org/2000/svg" type="table" tableValues="0 0.5"/></feComponentTransfer><feBlend xmlns="http://www.w3.org/2000/svg" in="SourceGraphic" in2="opacOut" mode="normal"/></filter></defs><g filter="url(#iPEtKcdOUAB9wC9mE7xzbtI95dBnpJtD)"><path d=" M 60 295.526 Q 74.894 375.976 189.501 375.965 Q 304.109 375.955 319.003 295.526 Q 320.15 284.128 303.767 284.035 C 296.358 283.993 255.682 290.768 190.375 290.678 Q 125.067 290.588 75.235 284.035 Q 61.353 284.849 60 295.526 Z " fill="rgb(249,249,249)"/></g><path d=" M 268.436 357.488 Q 275.666 364.66 275.623 372.487 Q 275.581 380.314 282.81 379.987 Q 289.853 379.855 289.997 372.487 Q 290.142 365.12 282.81 364.987 Q 275.313 350.191 268.436 349.988 Q 261.56 349.784 268.436 357.488 Z " fill="rgb(193,193,92)"/><path d=" M 62 293.996 Q 72.525 345.952 120.5 362.246 Q 146.242 372.193 179 371.996 Q 85.376 367.686 62 293.996 Z " fill="rgb(221,221,221)"/><defs><filter id="jH0QgxT9JjeTK5Un459VDDLRO5N3lWpP" x="-200%" y="-200%" width="400%" height="400%"><feOffset xmlns="http://www.w3.org/2000/svg" in="SourceAlpha" result="offOut" dx="0" dy="0"/><feGaussianBlur xmlns="http://www.w3.org/2000/svg" in="offOut" result="blurOut" stdDeviation="0"/><feComponentTransfer xmlns="http://www.w3.org/2000/svg" in="blurOut" result="opacOut"><feFuncA xmlns="http://www.w3.org/2000/svg" type="table" tableValues="0 0.5"/></feComponentTransfer><feBlend xmlns="http://www.w3.org/2000/svg" in="SourceGraphic" in2="opacOut" mode="normal"/></filter></defs><g filter="url(#jH0QgxT9JjeTK5Un459VDDLRO5N3lWpP)"><path d=" M 111.564 357.488 Q 104.334 364.66 104.377 372.487 Q 104.419 380.314 97.19 379.987 Q 90.147 379.855 90.003 372.487 Q 89.858 365.12 97.19 364.987 Q 104.687 350.191 111.564 349.988 Q 118.44 349.784 111.564 357.488 Z " fill="rgb(189,189,67)"/></g></g><path d=" M 317 294.537 Q 312.761 326.473 287 344.537 Q 309.564 317.078 317 294.537 Z " fill="rgb(221,221,221)"/></g></svg>