<?xml version="1.0" standalone="no"?><!-- Generator: Gravit.io --><svg xmlns="http://www.w3.org/2000/svg" xmlns:xlink="http://www.w3.org/1999/xlink" style="isolation:isolate" viewBox="0 0 400 390" width="400" height="390"><defs><clipPath id="_clipPath_Im2N2d1uPkzUBQYnW9BZBhGVg1wLxBvS"><rect width="400" height="390"/></clipPath></defs><g clip-path="url(#_clipPath_Im2N2d1uPkzUBQYnW9BZBhGVg1wLxBvS)"><rect width="400" height="390" style="fill:rgb(76,111,136)"/><g style="opacity:0.35;" id="Layer 0"><g id="Group"><g id="Group"><rect x="-139" y="65" width="60" height="60" transform="matrix(-1,0,0,-1,-218,190)" fill="rgb(142,180,240)"/><path d=" M -84 120 L -84 95 L -109 120 L -84 120 Z " fill="rgb(95,146,170)"/></g><g id="Group"><rect x="-139" y="0" width="60" height="60" transform="matrix(1,0,0,1,0,0)" fill="rgb(235,235,235)"/><path d=" M -134 5 L -134 30 L -109 5 L -134 5 Z " fill="rgb(95,146,170)"/></g><g id="Group"><rect x="-9" y="0" width="60" height="60" transform="matrix(-1,0,0,-1,42,60)" fill="rgb(235,235,235)"/><path d=" M 46 55 L 46 30 L 21 55 L 46 55 Z " fill="rgb(95,146,170)"/></g><g id="Group"><rect x="56" y="195" width="60" height="60" transform="matrix(1,0,0,1,0,0)" fill="rgb(235,235,235)"/><path d=" M 61 200 L 61 225 L 86 200 L 61 200 Z " fill="rgb(95,146,170)"/></g><g id="Group"><rect x="-9" y="130" width="60" height="60" transform="matrix(-1,0,0,-1,42,320)" fill="rgb(235,235,235)"/><path d=" M 46 185 L 46 160 L 21 185 L 46 185 Z " fill="rgb(95,146,170)"/></g><g id="Group"><rect x="-9" y="195" width="60" height="60" transform="matrix(0,1,-1,0,246,204)" fill="rgb(142,180,240)"/><path d=" M 46 200 L 21 200 L 46 225 L 46 200 Z " fill="rgb(95,146,170)"/></g><g id="Group"><rect x="-74" y="65" width="60" height="60" transform="matrix(0,-1,1,0,-139,51)" fill="rgb(170,199,244)"/><path d=" M -69 120 L -44 120 L -69 95 L -69 120 Z " fill="rgb(95,146,170)"/></g><g id="Group"><rect x="-9" y="260" width="60" height="60" transform="matrix(0,-1,1,0,-269,311)" fill="rgb(235,235,235)"/><path d=" M -4 315 L 21 315 L -4 290 L -4 315 Z " fill="rgb(95,146,170)"/></g><g id="Group"><rect x="-9" y="325" width="60" height="60" transform="matrix(1,0,0,1,0,0)" fill="rgb(142,180,240)"/><path d=" M -4 330 L -4 355 L 21 330 L -4 330 Z " fill="rgb(95,146,170)"/></g><g id="Group"><rect x="-139" y="325" width="60" height="60" transform="matrix(1,0,0,1,0,0)" fill="rgb(235,235,235)"/><path d=" M -134 330 L -134 355 L -109 330 L -134 330 Z " fill="rgb(95,146,170)"/></g><g id="Group"><rect x="-74" y="260" width="60" height="60" transform="matrix(-1,0,0,-1,-88,580)" fill="rgb(170,199,244)"/><path d=" M -19 315 L -19 290 L -44 315 L -19 315 Z " fill="rgb(95,146,170)"/></g><g id="Group"><rect x="-74" y="130" width="60" height="60" transform="matrix(1,0,0,1,0,0)" fill="rgb(235,235,235)"/><path d=" M -69 135 L -69 160 L -44 135 L -69 135 Z " fill="rgb(95,146,170)"/></g><g id="Group"><rect x="316" y="325" width="60" height="60" transform="matrix(1,0,0,1,0,0)" fill="rgb(235,235,235)"/><path d=" M 321 330 L 321 355 L 346 330 L 321 330 Z " fill="rgb(95,146,170)"/></g><g id="Group"><rect x="251" y="260" width="60" height="60" transform="matrix(-1,0,0,-1,562,580)" fill="rgb(235,235,235)"/><path d=" M 306 315 L 306 290 L 281 315 L 306 315 Z " fill="rgb(95,146,170)"/></g><g id="Group"><rect x="251" y="325" width="60" height="60" transform="matrix(0,1,-1,0,636,74)" fill="rgb(142,180,240)"/><path d=" M 306 330 L 281 330 L 306 355 L 306 330 Z " fill="rgb(95,146,170)"/></g><g id="Group"><rect x="186" y="260" width="60" height="60" transform="matrix(1,0,0,1,0,0)" fill="rgb(235,235,235)"/><path d=" M 191 265 L 191 290 L 216 265 L 191 265 Z " fill="rgb(95,146,170)"/></g><g id="Group"><rect x="316" y="130" width="60" height="60" transform="matrix(1,0,0,1,0,0)" fill="rgb(142,180,240)"/><path d=" M 321 135 L 321 160 L 346 135 L 321 135 Z " fill="rgb(95,146,170)"/></g><g id="Group"><rect x="316" y="195" width="60" height="60" transform="matrix(-1,0,0,-1,692,450)" fill="rgb(235,235,235)"/></g><g id="Group"><rect x="186" y="195" width="60" height="60" transform="matrix(0,-1,1,0,-9,441)" fill="rgb(170,199,244)"/><path d=" M 191 250 L 216 250 L 191 225 L 191 250 Z " fill="rgb(95,146,170)"/></g><g id="Group"><rect x="121" y="0" width="60" height="60" transform="matrix(-1,0,0,-1,302,60)" fill="rgb(235,235,235)"/><path d=" M 176 55 L 176 30 L 160.298 45.702 L 151 55 L 176 55 Z " fill="rgb(95,146,170)"/></g><g id="Group"><rect x="186" y="65" width="60" height="60" transform="matrix(1,0,0,1,0,0)" fill="rgb(235,235,235)"/><path d=" M 191 70 L 191 95 L 216 70 L 191 70 Z " fill="rgb(95,146,170)"/></g><g id="Group"><rect x="186" y="0" width="60" height="60" transform="matrix(0,-1,1,0,186,246)" fill="rgb(142,180,240)"/><path d=" M 191 55 L 216 55 L 191 30 L 191 55 Z " fill="rgb(95,146,170)"/></g><g id="Group"><rect x="121" y="325" width="60" height="60" transform="matrix(-1,0,0,-1,302,710)" fill="rgb(235,235,235)"/><path d=" M 176 380 L 176 355 L 151 380 L 176 380 Z " fill="rgb(95,146,170)"/></g><g id="Group"><rect x="121" y="260" width="60" height="60" transform="matrix(0,1,-1,0,441,139)" fill="rgb(142,180,240)"/><path d=" M 176 265 L 151 265 L 176 290 L 176 265 Z " fill="rgb(95,146,170)"/></g><g id="Group"><rect x="251" y="130" width="60" height="60" transform="matrix(0,1,-1,0,441,-121)" fill="rgb(170,199,244)"/><path d=" M 306 135 L 281 135 L 306 160 L 306 135 Z " fill="rgb(95,146,170)"/></g><g id="Group"><rect x="56" y="65" width="60" height="60" transform="matrix(1,0,0,1,0,0)" fill="rgb(170,199,244)"/><path d=" M 61 70 L 61 95 L 86 70 L 61 70 Z " fill="rgb(95,146,170)"/></g><g id="Group"><rect x="511" y="260" width="60" height="60" transform="matrix(-1,0,0,-1,1082,580)" fill="rgb(142,180,240)"/><path d=" M 566 315 L 566 290 L 541 315 L 566 315 Z " fill="rgb(95,146,170)"/></g><g id="Group"><rect x="381" y="325" width="60" height="60" transform="matrix(0,-1,1,0,56,766)" fill="rgb(170,199,244)"/><path d=" M 386 380 L 411 380 L 386 355 L 386 380 Z " fill="rgb(95,146,170)"/></g><g id="Group"><rect x="576" y="325" width="60" height="60" transform="matrix(1,0,0,1,0,0)" fill="rgb(170,199,244)"/><path d=" M 581 330 L 581 355 L 606 330 L 581 330 Z " fill="rgb(95,146,170)"/></g><g id="Group"><rect x="381" y="0" width="60" height="60" transform="matrix(-1,0,0,-1,822,60)" fill="rgb(142,180,240)"/><path d=" M 436 55 L 436 30 L 411 55 L 436 55 Z " fill="rgb(95,146,170)"/></g><g id="Group"><rect x="121" y="130" width="60" height="60" transform="matrix(-1,0,0,-1,302,320)" fill="rgb(235,235,235)"/></g><g id="Group"><rect x="381" y="130" width="60" height="60" transform="matrix(-1,0,0,-1,822,320)" fill="rgb(235,235,235)"/><path d=" M 436 185 L 436 160 L 411 185 L 436 185 Z " fill="rgb(95,146,170)"/></g><g id="Group"><rect x="511" y="130" width="60" height="60" transform="matrix(-1,0,0,-1,1082,320)" fill="rgb(235,235,235)"/><path d=" M 566 185 L 566 160 L 541 185 L 566 185 Z " fill="rgb(95,146,170)"/></g><g id="Group"><rect x="511" y="195" width="60" height="60" transform="matrix(0,1,-1,0,766,-316)" fill="rgb(235,235,235)"/><path d=" M 566 200 L 541 200 L 566 225 L 566 200 Z " fill="rgb(95,146,170)"/></g><g id="Group"><rect x="576" y="130" width="60" height="60" transform="matrix(0,1,-1,0,766,-446)" fill="rgb(235,235,235)"/><path d=" M 581 185 L 606 185 L 581 160 L 581 185 Z " fill="rgb(95,146,170)"/></g><g id="Group"><rect x="511" y="0" width="60" height="60" transform="matrix(-1,0,0,-1,1082,60)" fill="rgb(235,235,235)"/><path d=" M 566 55 L 566 30 L 550.298 45.702 L 541 55 L 566 55 Z " fill="rgb(95,146,170)"/></g><g id="Group"><rect x="576" y="65" width="60" height="60" transform="matrix(1,0,0,1,0,0)" fill="rgb(170,199,244)"/><path d=" M 581 70 L 581 95 L 606 70 L 581 70 Z " fill="rgb(95,146,170)"/></g><g id="Group"><rect x="576" y="0" width="60" height="60" transform="matrix(0,-1,1,0,576,636)" fill="rgb(142,180,240)"/><path d=" M 581 55 L 606 55 L 581 30 L 581 55 Z " fill="rgb(95,146,170)"/></g><g id="Group"><rect x="446" y="65" width="60" height="60" transform="matrix(1,0,0,1,0,0)" fill="rgb(170,199,244)"/><path d=" M 451 70 L 451 95 L 476 70 L 451 70 Z " fill="rgb(95,146,170)"/></g><g id="Group"><rect x="251" y="65" width="60" height="60" transform="matrix(-1,0,0,-1,562,190)" fill="rgb(235,235,235)"/><path d=" M 306 120 L 306 95 L 281 120 L 306 120 Z " fill="rgb(95,146,170)"/></g></g></g></g></svg>