<?xml version="1.0" standalone="no"?><!-- Generator: Gravit.io --><svg xmlns="http://www.w3.org/2000/svg" xmlns:xlink="http://www.w3.org/1999/xlink" style="isolation:isolate" viewBox="0 0 400 400" width="400" height="400"><defs><clipPath id="_clipPath_qv3JLBc154ghv1Nh3ctbwLkHi3ktH6T0"><rect width="400" height="400"/></clipPath></defs><g clip-path="url(#_clipPath_qv3JLBc154ghv1Nh3ctbwLkHi3ktH6T0)"><rect width="400" height="400" style="fill:rgb(244,233,194)"/><path d=" M 100 310 L 190 400 L 400 400 L 400 145 L 300 50 L 110 55 L 100 310 Z " fill="rgb(113,113,113)" fill-opacity="0.49"/><rect x="100" y="270" width="200" height="20" transform="matrix(1,0,0,1,0,0)" fill="rgb(187,186,186)"/><g id="Group"><path d="M 165 300 L 165 300 C 167.76 300 170 302.395 170 305.345 L 170 334.655 C 170 337.605 167.76 340 165 340 L 165 340 C 162.24 340 160 337.605 160 334.655 L 160 305.345 C 160 302.395 162.24 300 165 300 Z" style="stroke:none;fill:#C37A1A;stroke-miterlimit:10;"/><path d="M 235 300 L 235 300 C 237.76 300 240 302.395 240 305.345 L 240 334.655 C 240 337.605 237.76 340 235 340 L 235 340 C 232.24 340 230 337.605 230 334.655 L 230 305.345 C 230 302.395 232.24 300 235 300 Z" style="stroke:none;fill:#9F6416;stroke-miterlimit:10;"/></g><g id="Group"><path d=" M 200 280 L 300 280 L 300 310 Q 250.395 319.998 200 320 L 200 280 Z " fill="rgb(206,205,205)"/><path d=" M 200 280 L 100 280 L 100 310 Q 149.605 319.998 200 320 L 200 280 Z " fill="rgb(236,232,232)"/></g><g id="Group"><path d=" M 100 275 L 200 275 L 200 40 Q 138.562 39.958 100 50 L 100 275 Z " fill="rgb(236,232,232)"/><path d=" M 300 275 L 200 275 L 200 40 Q 261.438 39.958 300 50 L 300 275 Z " fill="rgb(206,205,205)"/></g><path d=" M 162.929 292.929 C 166.832 289.026 173.168 289.026 177.071 292.929 C 180.974 296.832 180.974 303.168 177.071 307.071 C 173.168 310.974 166.832 310.974 162.929 307.071 C 159.026 303.168 159.026 296.832 162.929 292.929 Z  M 170 300 L 177.071 292.929" fill-rule="evenodd" fill="rgb(206,198,198)" vector-effect="non-scaling-stroke" stroke-width="1" stroke="rgb(153,145,145)" stroke-linejoin="miter" stroke-linecap="square" stroke-miterlimit="3"/><path d=" M 222.931 292.927 C 226.834 289.024 233.17 289.024 237.073 292.927 C 240.976 296.83 240.976 303.166 237.073 307.069 C 233.17 310.972 226.834 310.972 222.931 307.069 C 219.028 303.166 219.028 296.83 222.931 292.927 Z  M 230.002 299.998 L 237.073 292.927" fill-rule="evenodd" fill="rgb(185,179,179)" vector-effect="non-scaling-stroke" stroke-width="1" stroke="rgb(136,132,132)" stroke-linejoin="miter" stroke-linecap="square" stroke-miterlimit="3"/></g></svg>