<?xml version="1.0" standalone="no"?><!-- Generator: Gravit.io --><svg xmlns="http://www.w3.org/2000/svg" xmlns:xlink="http://www.w3.org/1999/xlink" style="isolation:isolate" viewBox="0 0 290 40" width="290" height="40"><defs><clipPath id="_clipPath_YQolLurzDKkCCbHRFhFu6ZVgKN2pFq9P"><rect width="290" height="40"/></clipPath></defs><g clip-path="url(#_clipPath_YQolLurzDKkCCbHRFhFu6ZVgKN2pFq9P)"><defs><filter id="inUKj4IKINR8mA9Bk3wV6yby0KduY5Nd" x="-200%" y="-200%" width="400%" height="400%"><feOffset xmlns="http://www.w3.org/2000/svg" in="SourceAlpha" result="offOut" dx="3" dy="3"/><feGaussianBlur xmlns="http://www.w3.org/2000/svg" in="offOut" result="blurOut" stdDeviation="0"/><feComponentTransfer xmlns="http://www.w3.org/2000/svg" in="blurOut" result="opacOut"><feFuncA xmlns="http://www.w3.org/2000/svg" type="table" tableValues="0 0.5"/></feComponentTransfer><feBlend xmlns="http://www.w3.org/2000/svg" in="SourceGraphic" in2="opacOut" mode="normal"/></filter></defs><g filter="url(#inUKj4IKINR8mA9Bk3wV6yby0KduY5Nd)"><rect x="0" y="0" width="290" height="30" transform="matrix(1,0,0,1,0,0)" fill="rgb(255,255,0)"/></g><path d=" M 146.42 22.64 L 144.04 22.64 L 144.04 8.64 L 146.42 8.64 L 146.42 14.3 L 150.94 14.3 L 150.94 8.64 L 153.32 8.64 L 153.32 22.64 L 150.94 22.64 L 150.94 16.54 L 146.42 16.54 L 146.42 22.64 Z  M 165.76 22.64 L 156.36 22.64 L 156.36 8.64 L 165.34 8.64 L 165.34 10.9 L 158.74 10.9 L 158.74 14.28 L 163.04 14.28 L 163.04 16.54 L 158.74 16.54 L 158.74 20.38 L 165.76 20.38 L 165.76 22.64 Z  M 179.02 22.64 L 176.46 22.64 L 175.54 19.56 L 171.1 19.56 L 170.18 22.64 L 167.62 22.64 L 172.2 8.64 L 174.44 8.64 L 179.02 22.64 Z  M 172.98 13.24 L 171.74 17.4 L 174.9 17.4 L 173.66 13.24 L 173.66 13.24 Q 173.46 12.6 173.32 11.68 L 173.32 11.68 L 173.32 11.68 Q 173.08 12.9 172.98 13.24 L 172.98 13.24 Z  M 186.82 22.64 L 184.44 22.64 L 184.44 10.92 L 180.38 10.92 L 180.38 8.64 L 190.9 8.64 L 190.9 10.92 L 186.82 10.92 L 186.82 22.64 Z  M 202.08 8.64 L 202.08 10.74 L 199.14 10.74 L 199.14 20.54 L 202.08 20.54 L 202.08 22.64 L 193.84 22.64 L 193.84 20.54 L 196.76 20.54 L 196.76 10.74 L 193.84 10.74 L 193.84 8.64 L 202.08 8.64 Z  M 207.86 22.64 L 205.64 22.64 L 205.64 8.64 L 207.9 8.64 L 212.26 17.28 L 212.26 17.28 Q 212.62 17.9 212.76 18.24 L 212.76 18.24 L 212.76 18.24 Q 212.72 17.48 212.72 17.28 L 212.72 17.28 L 212.72 8.64 L 214.92 8.64 L 214.92 22.64 L 212.76 22.64 L 208.32 13.96 L 208.32 13.96 Q 207.96 13.34 207.8 13 L 207.8 13 L 207.8 13 Q 207.86 13.3 207.86 13.96 L 207.86 13.96 L 207.86 22.64 Z  M 222.82 22.88 L 222.82 22.88 L 222.82 22.88 Q 221 22.88 219.72 21.81 L 219.72 21.81 L 219.72 21.81 Q 218.44 20.74 217.87 19.15 L 217.87 19.15 L 217.87 19.15 Q 217.3 17.56 217.3 15.64 L 217.3 15.64 L 217.3 15.64 Q 217.3 13.82 217.89 12.21 L 217.89 12.21 L 217.89 12.21 Q 218.48 10.6 219.77 9.5 L 219.77 9.5 L 219.77 9.5 Q 221.06 8.4 222.82 8.4 L 222.82 8.4 L 222.82 8.4 Q 224.44 8.4 225.43 9.16 L 225.43 9.16 L 225.43 9.16 Q 226.42 9.92 227.14 11.22 L 227.14 11.22 L 225.04 12.42 L 225.04 12.42 Q 224.1 10.66 222.82 10.66 L 222.82 10.66 L 222.82 10.66 Q 221.76 10.66 221.05 11.47 L 221.05 11.47 L 221.05 11.47 Q 220.34 12.28 220.06 13.35 L 220.06 13.35 L 220.06 13.35 Q 219.78 14.42 219.78 15.64 L 219.78 15.64 L 219.78 15.64 Q 219.78 17.7 220.56 19.16 L 220.56 19.16 L 220.56 19.16 Q 221.34 20.62 222.82 20.62 L 222.82 20.62 L 222.82 20.62 Q 223.9 20.62 224.47 19.9 L 224.47 19.9 L 224.47 19.9 Q 225.04 19.18 225.04 18.02 L 225.04 18.02 L 225.04 17.72 L 222.6 17.72 L 222.6 15.48 L 227.48 15.48 L 227.48 17.42 L 227.48 17.42 Q 227.48 20 226.18 21.44 L 226.18 21.44 L 226.18 21.44 Q 224.88 22.88 222.82 22.88 Z  M 127.64 19.58 L 130.06 22.64 L 127.08 22.64 L 126.14 21.42 L 126.14 21.42 Q 124.42 22.88 122.2 22.88 L 122.2 22.88 L 122.2 22.88 Q 120.32 22.88 119.18 21.81 L 119.18 21.81 L 119.18 21.81 Q 118.04 20.74 118.04 18.96 L 118.04 18.96 L 118.04 18.96 Q 118.04 17.48 118.83 16.55 L 118.83 16.55 L 118.83 16.55 Q 119.62 15.62 121.04 14.78 L 121.04 14.78 L 121.04 14.78 Q 119.68 12.86 119.68 11.52 L 119.68 11.52 L 119.68 11.52 Q 119.68 10.06 120.67 9.23 L 120.67 9.23 L 120.67 9.23 Q 121.66 8.4 123.16 8.4 L 123.16 8.4 L 123.16 8.4 Q 124.66 8.4 125.62 9.28 L 125.62 9.28 L 125.62 9.28 Q 126.58 10.16 126.58 11.6 L 126.58 11.6 L 126.58 11.6 Q 126.58 12.78 125.94 13.61 L 125.94 13.61 L 125.94 13.61 Q 125.3 14.44 124.16 15.18 L 124.16 15.18 L 126.08 17.62 L 126.08 17.62 Q 126.4 16.7 126.44 15.8 L 126.44 15.8 L 128.68 15.8 L 128.68 15.8 Q 128.64 17.78 127.64 19.58 L 127.64 19.58 Z  M 121.84 11.48 L 121.84 11.48 L 121.84 11.48 Q 121.84 11.94 122.09 12.4 L 122.09 12.4 L 122.09 12.4 Q 122.34 12.86 122.96 13.68 L 122.96 13.68 L 122.96 13.68 Q 124.42 12.72 124.42 11.6 L 124.42 11.6 L 124.42 11.6 Q 124.42 10.96 124.04 10.58 L 124.04 10.58 L 124.04 10.58 Q 123.66 10.2 123.1 10.2 L 123.1 10.2 L 123.1 10.2 Q 122.54 10.2 122.19 10.55 L 122.19 10.55 L 122.19 10.55 Q 121.84 10.9 121.84 11.48 Z  M 122.54 20.68 L 122.54 20.68 L 122.54 20.68 Q 123.82 20.68 124.82 19.72 L 124.82 19.72 L 122.24 16.36 L 122.24 16.36 Q 121.34 16.96 120.86 17.52 L 120.86 17.52 L 120.86 17.52 Q 120.38 18.08 120.38 18.82 L 120.38 18.82 L 120.38 18.82 Q 120.38 19.66 120.96 20.17 L 120.96 20.17 L 120.96 20.17 Q 121.54 20.68 122.54 20.68 Z  M 10.9 22.64 L 8.52 22.64 L 8.52 8.64 L 13.46 8.64 L 13.46 8.64 Q 15.88 8.64 17.01 9.9 L 17.01 9.9 L 17.01 9.9 Q 18.14 11.16 18.14 12.98 L 18.14 12.98 L 18.14 12.98 Q 18.14 14.7 16.96 16.01 L 16.96 16.01 L 16.96 16.01 Q 15.78 17.32 13.46 17.32 L 13.46 17.32 L 10.9 17.32 L 10.9 22.64 Z  M 10.9 10.88 L 10.9 15.08 L 13.58 15.08 L 13.58 15.08 Q 14.66 15.08 15.19 14.46 L 15.19 14.46 L 15.19 14.46 Q 15.72 13.84 15.72 12.98 L 15.72 12.98 L 15.72 12.98 Q 15.72 12.16 15.21 11.52 L 15.21 11.52 L 15.21 11.52 Q 14.7 10.88 13.58 10.88 L 13.58 10.88 L 10.9 10.88 Z  M 29.68 22.64 L 20.84 22.64 L 20.84 8.64 L 23.22 8.64 L 23.22 20.36 L 29.68 20.36 L 29.68 22.64 Z  M 37.8 22.88 L 37.8 22.88 L 37.8 22.88 Q 35.72 22.88 34.4 21.55 L 34.4 21.55 L 34.4 21.55 Q 33.08 20.22 33.08 17.3 L 33.08 17.3 L 33.08 8.64 L 35.44 8.64 L 35.44 17.3 L 35.44 17.3 Q 35.44 19.12 36.06 19.87 L 36.06 19.87 L 36.06 19.87 Q 36.68 20.62 37.8 20.62 L 37.8 20.62 L 37.8 20.62 Q 40.16 20.62 40.16 17.3 L 40.16 17.3 L 40.16 8.64 L 42.54 8.64 L 42.54 17.3 L 42.54 17.3 Q 42.54 20.18 41.22 21.53 L 41.22 21.53 L 41.22 21.53 Q 39.9 22.88 37.8 22.88 Z  M 47.54 22.64 L 45.48 22.64 L 45.48 8.64 L 47.8 8.64 L 49.82 16.32 L 49.82 16.32 Q 50.1 17.36 50.16 17.7 L 50.16 17.7 L 50.16 17.7 Q 50.24 17.06 50.5 16.32 L 50.5 16.32 L 52.58 8.64 L 54.76 8.64 L 54.76 22.64 L 52.7 22.64 L 52.7 15.04 L 52.7 15.04 Q 52.7 14.16 52.74 13.88 L 52.74 13.88 L 52.36 15.04 L 50.22 22.64 L 50.02 22.64 L 47.88 15.04 L 47.5 13.88 L 47.5 13.88 Q 47.54 14.44 47.54 15.04 L 47.54 15.04 L 47.54 22.64 Z  M 62.82 22.64 L 57.8 22.64 L 57.8 8.64 L 62.52 8.64 L 62.52 8.64 Q 64.88 8.64 65.94 9.71 L 65.94 9.71 L 65.94 9.71 Q 67 10.78 67 12.38 L 67 12.38 L 67 12.38 Q 67 14.44 65.18 15.26 L 65.18 15.26 L 65.18 15.26 Q 66.3 15.64 66.89 16.54 L 66.89 16.54 L 66.89 16.54 Q 67.48 17.44 67.48 18.54 L 67.48 18.54 L 67.48 18.54 Q 67.48 20.22 66.35 21.43 L 66.35 21.43 L 66.35 21.43 Q 65.22 22.64 62.82 22.64 L 62.82 22.64 Z  M 60.18 10.84 L 60.18 14.3 L 62.2 14.3 L 62.2 14.3 Q 63.4 14.3 64.01 13.83 L 64.01 13.83 L 64.01 13.83 Q 64.62 13.36 64.62 12.54 L 64.62 12.54 L 64.62 12.54 Q 64.62 10.84 62.58 10.84 L 62.58 10.84 L 60.18 10.84 Z  M 60.18 16.48 L 60.18 20.44 L 62.98 20.44 L 62.98 20.44 Q 64.12 20.44 64.61 19.89 L 64.61 19.89 L 64.61 19.89 Q 65.1 19.34 65.1 18.56 L 65.1 18.56 L 65.1 18.56 Q 65.1 16.48 62.4 16.48 L 62.4 16.48 L 60.18 16.48 Z  M 78.88 8.64 L 78.88 10.74 L 75.94 10.74 L 75.94 20.54 L 78.88 20.54 L 78.88 22.64 L 70.64 22.64 L 70.64 20.54 L 73.56 20.54 L 73.56 10.74 L 70.64 10.74 L 70.64 8.64 L 78.88 8.64 Z  M 84.66 22.64 L 82.44 22.64 L 82.44 8.64 L 84.7 8.64 L 89.06 17.28 L 89.06 17.28 Q 89.42 17.9 89.56 18.24 L 89.56 18.24 L 89.56 18.24 Q 89.52 17.48 89.52 17.28 L 89.52 17.28 L 89.52 8.64 L 91.72 8.64 L 91.72 22.64 L 89.56 22.64 L 85.12 13.96 L 85.12 13.96 Q 84.76 13.34 84.6 13 L 84.6 13 L 84.6 13 Q 84.66 13.3 84.66 13.96 L 84.66 13.96 L 84.66 22.64 Z  M 99.62 22.88 L 99.62 22.88 L 99.62 22.88 Q 97.8 22.88 96.52 21.81 L 96.52 21.81 L 96.52 21.81 Q 95.24 20.74 94.67 19.15 L 94.67 19.15 L 94.67 19.15 Q 94.1 17.56 94.1 15.64 L 94.1 15.64 L 94.1 15.64 Q 94.1 13.82 94.69 12.21 L 94.69 12.21 L 94.69 12.21 Q 95.28 10.6 96.57 9.5 L 96.57 9.5 L 96.57 9.5 Q 97.86 8.4 99.62 8.4 L 99.62 8.4 L 99.62 8.4 Q 101.24 8.4 102.23 9.16 L 102.23 9.16 L 102.23 9.16 Q 103.22 9.92 103.94 11.22 L 103.94 11.22 L 101.84 12.42 L 101.84 12.42 Q 100.9 10.66 99.62 10.66 L 99.62 10.66 L 99.62 10.66 Q 98.56 10.66 97.85 11.47 L 97.85 11.47 L 97.85 11.47 Q 97.14 12.28 96.86 13.35 L 96.86 13.35 L 96.86 13.35 Q 96.58 14.42 96.58 15.64 L 96.58 15.64 L 96.58 15.64 Q 96.58 17.7 97.36 19.16 L 97.36 19.16 L 97.36 19.16 Q 98.14 20.62 99.62 20.62 L 99.62 20.62 L 99.62 20.62 Q 100.7 20.62 101.27 19.9 L 101.27 19.9 L 101.27 19.9 Q 101.84 19.18 101.84 18.02 L 101.84 18.02 L 101.84 17.72 L 99.4 17.72 L 99.4 15.48 L 104.28 15.48 L 104.28 17.42 L 104.28 17.42 Q 104.28 20 102.98 21.44 L 102.98 21.44 L 102.98 21.44 Q 101.68 22.88 99.62 22.88 Z " fill-rule="evenodd" fill="rgb(0,0,0)"/></g></svg>