<?xml version="1.0" standalone="no"?><!-- Generator: Gravit.io --><svg xmlns="http://www.w3.org/2000/svg" xmlns:xlink="http://www.w3.org/1999/xlink" style="isolation:isolate" viewBox="0 0 1950 890" width="1950" height="890"><defs><clipPath id="_clipPath_B5AErjvKxqT4YsVY0UZ6sciPwIx9r22i"><rect width="1950" height="890"/></clipPath></defs><g clip-path="url(#_clipPath_B5AErjvKxqT4YsVY0UZ6sciPwIx9r22i)"><rect width="1950" height="890" style="fill:none"/><g id="Group" filter="url(#u2NNCW350rrgcoGIXagaJ3LM8ibSHfGq)"><defs><filter id="RDJ91UawvP7Nps9KKXAoXOPoZNNrPkZl" x="-200%" y="-200%" width="400%" height="400%"><feOffset xmlns="http://www.w3.org/2000/svg" in="SourceAlpha" result="offOut" dx="30" dy="30"/><feGaussianBlur xmlns="http://www.w3.org/2000/svg" in="offOut" result="blurOut" stdDeviation="0"/><feComponentTransfer xmlns="http://www.w3.org/2000/svg" in="blurOut" result="opacOut"><feFuncA xmlns="http://www.w3.org/2000/svg" type="table" tableValues="0 0.5"/></feComponentTransfer><feBlend xmlns="http://www.w3.org/2000/svg" in="SourceGraphic" in2="opacOut" mode="normal"/></filter></defs><g opacity="0.46" filter="url(#RDJ91UawvP7Nps9KKXAoXOPoZNNrPkZl)"><rect x="-3" y="0" width="1920" height="860" transform="matrix(1,0,0,1,0,0)" fill="rgb(235,235,235)" fill-opacity="0.28"/></g><path d="M -0.975 657.286 L 1914.975 657.286 C 1916.093 657.286 1917 658.193 1917 659.31 L 1917 857.975 C 1917 859.093 1916.093 860 1914.975 860 L -0.975 860 C -2.093 860 -3 859.093 -3 857.975 L -3 659.31 C -3 658.193 -2.093 657.286 -0.975 657.286 Z" style="stroke:none;fill:#FFFFFF;stroke-miterlimit:10;opacity:0.08;"/><path d=" M 1230.351 803.24 L 1217.887 803.24 L 1217.887 770.621 L 1186.452 770.621 L 1186.452 803.24 L 1174.099 803.24 L 1174.099 728.051 L 1186.452 727.499 L 1186.452 760.559 L 1217.887 760.559 L 1217.887 728.051 L 1230.351 728.051 L 1230.351 803.24 Z  M 1322.119 803.24 L 1272.043 803.24 L 1272.043 728.051 L 1315.501 728.051 L 1317.376 737.782 L 1284.397 737.782 L 1284.397 760.228 L 1305.022 760.228 L 1305.022 760.228 Q 1305.464 762.66 1305.96 765.148 L 1305.96 765.148 L 1305.96 765.148 Q 1306.456 767.636 1306.898 770.069 L 1306.898 770.069 L 1284.397 770.069 L 1284.397 793.51 L 1320.244 793.51 L 1320.244 793.51 Q 1320.685 795.942 1321.181 798.375 L 1321.181 798.375 L 1321.181 798.375 Q 1321.677 800.807 1322.119 803.24 L 1322.119 803.24 Z  M 1392.489 774.27 L 1381.349 745.079 L 1370.429 774.27 L 1392.489 774.27 Z  M 1376.054 728.051 L 1386.974 728.051 L 1415.982 801.471 L 1403.518 803.24 L 1396.349 784.332 L 1366.789 784.332 L 1359.73 803.24 L 1347.377 803.24 L 1376.054 728.051 Z  M 1498.375 728.051 L 1500.25 737.892 L 1475.102 737.892 L 1475.102 803.24 L 1462.528 803.24 L 1462.528 737.892 L 1439.476 737.892 L 1439.476 728.051 L 1498.375 728.051 Z  M 1545.251 803.24 L 1532.898 803.24 L 1532.898 728.051 L 1545.251 728.051 L 1545.251 803.24 Z  M 1599.408 803.24 L 1587.054 803.24 L 1587.054 728.051 L 1598.856 728.051 L 1629.519 771.838 L 1629.519 771.838 Q 1631.063 774.049 1632.607 776.371 L 1632.607 776.371 L 1632.607 776.371 Q 1634.151 778.693 1635.696 781.015 L 1635.696 781.015 L 1635.696 728.051 L 1648.159 728.051 L 1648.159 803.24 L 1636.247 803.24 L 1605.033 758.459 L 1599.408 750.055 L 1599.408 803.24 Z  M 1717.206 772.501 L 1718.198 762.992 L 1744.559 762.992 L 1744.559 793.841 L 1744.559 793.841 Q 1744.559 795.279 1744.504 796.661 L 1744.504 796.661 L 1744.504 796.661 Q 1744.449 798.043 1744.449 799.37 L 1744.449 799.37 L 1744.559 799.481 L 1744.559 799.481 Q 1740.478 801.692 1734.412 803.24 L 1734.412 803.24 L 1734.412 803.24 Q 1728.346 804.788 1721.948 804.788 L 1721.948 804.788 L 1721.948 804.788 Q 1704.521 804.788 1695.642 793.565 L 1695.642 793.565 L 1695.642 793.565 Q 1686.763 782.342 1686.763 766.088 L 1686.763 766.088 L 1686.763 766.088 Q 1686.763 748.728 1696.69 737.616 L 1696.69 737.616 L 1696.69 737.616 Q 1706.617 726.503 1723.382 726.503 L 1723.382 726.503 L 1723.382 726.503 Q 1726.802 726.503 1732.868 727.609 L 1732.868 727.609 L 1732.868 727.609 Q 1738.934 728.715 1743.346 731.258 L 1743.346 731.258 L 1739.486 740.214 L 1739.486 740.214 Q 1734.964 738.777 1731.82 737.948 L 1731.82 737.948 L 1731.82 737.948 Q 1728.677 737.118 1723.603 737.118 L 1723.603 737.118 L 1723.603 737.118 Q 1713.235 737.118 1706.452 744.416 L 1706.452 744.416 L 1706.452 744.416 Q 1699.668 751.714 1699.668 765.977 L 1699.668 765.977 L 1699.668 765.977 Q 1699.668 779.025 1705.349 786.654 L 1705.349 786.654 L 1705.349 786.654 Q 1711.029 794.284 1721.618 794.284 L 1721.618 794.284 L 1721.618 794.284 Q 1725.368 794.284 1728.235 793.786 L 1728.235 793.786 L 1728.235 793.786 Q 1731.103 793.289 1733.199 792.736 L 1733.199 792.736 L 1733.199 772.501 L 1717.206 772.501 Z  M 981.739 779.135 L 981.739 779.135 L 981.739 779.135 Q 981.739 786.654 986.648 790.027 L 986.648 790.027 L 986.648 790.027 Q 991.556 793.399 997.733 793.399 L 997.733 793.399 L 997.733 793.399 Q 1001.924 793.399 1005.453 792.128 L 1005.453 792.128 L 1005.453 792.128 Q 1008.983 790.856 1011.63 788.423 L 1011.63 788.423 L 991.115 769.626 L 987.475 766.309 L 987.475 766.309 Q 984.717 768.742 983.284 772.059 L 983.284 772.059 L 983.284 772.059 Q 981.85 775.376 981.739 779.135 Z  M 1018.579 731.59 L 1014.277 741.541 L 1014.277 741.541 Q 1010.968 739.993 1007.549 738.556 L 1007.549 738.556 L 1007.549 738.556 Q 1004.13 737.118 999.056 737.118 L 999.056 737.118 L 999.056 737.118 Q 994.424 737.118 991.832 739.883 L 991.832 739.883 L 991.832 739.883 Q 989.24 742.647 989.24 746.406 L 989.24 746.406 L 989.24 746.406 Q 989.24 750.276 991.666 753.649 L 991.666 753.649 L 991.666 753.649 Q 994.093 757.021 999.056 761.444 L 999.056 761.444 L 1018.027 778.914 L 1018.027 778.914 Q 1019.572 775.487 1020.509 771.174 L 1020.509 771.174 L 1020.509 771.174 Q 1021.447 766.862 1021.778 761.886 L 1021.778 761.886 L 1032.697 766.309 L 1032.697 766.309 Q 1032.366 772.28 1031.043 777.587 L 1031.043 777.587 L 1031.043 777.587 Q 1029.719 782.895 1027.513 787.428 L 1027.513 787.428 L 1036.337 795.279 L 1029.057 804.456 L 1020.454 796.606 L 1020.454 796.606 Q 1016.373 800.365 1010.748 802.466 L 1010.748 802.466 L 1010.748 802.466 Q 1005.123 804.567 997.733 804.567 L 997.733 804.567 L 997.733 804.567 Q 985.71 804.456 977.217 798.098 L 977.217 798.098 L 977.217 798.098 Q 968.724 791.741 968.724 779.246 L 968.724 779.246 L 968.724 779.246 Q 968.724 772.943 971.868 767.194 L 971.868 767.194 L 971.868 767.194 Q 975.011 761.444 979.754 757.574 L 979.754 757.574 L 979.754 757.574 Q 978.21 755.473 977.383 752.764 L 977.383 752.764 L 977.383 752.764 Q 976.555 750.055 976.555 746.959 L 976.555 746.959 L 976.555 746.959 Q 976.555 738.666 982.622 732.474 L 982.622 732.474 L 982.622 732.474 Q 988.688 726.282 999.056 726.282 L 999.056 726.282 L 999.056 726.282 Q 1004.461 726.282 1009.424 727.941 L 1009.424 727.941 L 1009.424 727.941 Q 1014.388 729.599 1018.579 731.59 L 1018.579 731.59 Z  M 162.557 803.24 L 150.204 803.24 L 150.204 728.051 L 172.705 728.051 L 172.705 728.051 Q 184.837 728.051 193.275 733.525 L 193.275 733.525 L 193.275 733.525 Q 201.713 738.998 201.713 751.824 L 201.713 751.824 L 201.713 751.824 Q 201.603 764.54 192.558 770.4 L 192.558 770.4 L 192.558 770.4 Q 183.514 776.261 171.602 776.261 L 171.602 776.261 L 162.557 776.261 L 162.557 803.24 Z  M 172.374 738.445 L 172.374 738.445 L 162.557 738.445 L 162.557 765.977 L 172.263 765.977 L 172.263 765.977 Q 179.212 765.977 183.734 762.771 L 183.734 762.771 L 183.734 762.771 Q 188.257 759.564 188.587 752.488 L 188.587 752.488 L 188.587 752.488 Q 188.587 744.637 184.286 741.541 L 184.286 741.541 L 184.286 741.541 Q 179.984 738.445 172.374 738.445 Z  M 284.216 793.51 L 285.98 803.24 L 238.332 803.24 L 238.332 728.051 L 250.685 728.051 L 250.685 793.51 L 284.216 793.51 Z  M 330.982 728.051 L 330.982 775.155 L 330.982 775.155 Q 330.982 784.553 335.78 789.419 L 335.78 789.419 L 335.78 789.419 Q 340.578 794.284 348.299 794.284 L 348.299 794.284 L 348.299 794.284 Q 356.24 794.284 360.928 789.308 L 360.928 789.308 L 360.928 789.308 Q 365.615 784.332 365.615 775.155 L 365.615 775.155 L 365.615 728.051 L 378.189 728.051 L 378.189 776.15 L 378.189 776.15 Q 378.189 788.313 370.138 796.385 L 370.138 796.385 L 370.138 796.385 Q 362.086 804.456 348.299 804.456 L 348.299 804.456 L 348.299 804.456 Q 334.511 804.456 326.515 796.385 L 326.515 796.385 L 326.515 796.385 Q 318.518 788.313 318.518 776.15 L 318.518 776.15 L 318.518 728.051 L 330.982 728.051 Z  M 455.729 779.135 L 450.986 779.799 L 431.574 753.704 L 431.574 803.24 L 419.22 803.24 L 419.22 728.051 L 426.941 728.051 L 452.861 763.987 L 476.906 728.051 L 484.627 728.051 L 484.627 803.24 L 472.053 803.24 L 472.053 755.473 L 455.729 779.135 Z  M 526.209 728.051 L 551.467 728.051 L 551.467 728.051 Q 562.607 728.051 569.667 732.695 L 569.667 732.695 L 569.667 732.695 Q 576.726 737.339 576.726 748.728 L 576.726 748.728 L 576.726 748.728 Q 576.726 753.262 574.575 756.745 L 574.575 756.745 L 574.575 756.745 Q 572.424 760.228 569.005 762.66 L 569.005 762.66 L 569.005 762.66 Q 574.409 765.093 577.939 769.682 L 577.939 769.682 L 577.939 769.682 Q 581.468 774.27 581.468 781.457 L 581.468 781.457 L 581.468 781.457 Q 581.468 792.293 573.968 797.767 L 573.968 797.767 L 573.968 797.767 Q 566.468 803.24 554.556 803.24 L 554.556 803.24 L 526.209 803.24 L 526.209 728.051 Z  M 549.923 738.445 L 549.923 738.445 L 538.563 738.445 L 538.563 759.343 L 549.041 759.343 L 549.041 759.343 Q 555.659 759.343 559.629 756.966 L 559.629 756.966 L 559.629 756.966 Q 563.6 754.589 563.6 748.949 L 563.6 748.949 L 563.6 748.949 Q 563.6 742.757 559.905 740.601 L 559.905 740.601 L 559.905 740.601 Q 556.21 738.445 549.923 738.445 Z  M 554.887 769.516 L 554.887 769.516 L 538.563 769.516 L 538.563 792.957 L 553.784 792.957 L 553.784 792.957 Q 560.291 792.957 564.427 790.193 L 564.427 790.193 L 564.427 790.193 Q 568.564 787.428 568.564 781.568 L 568.564 781.568 L 568.564 781.568 Q 568.564 775.597 564.813 772.556 L 564.813 772.556 L 564.813 772.556 Q 561.063 769.516 554.887 769.516 Z  M 631.102 803.24 L 618.749 803.24 L 618.749 728.051 L 631.102 728.051 L 631.102 803.24 Z  M 685.259 803.24 L 672.905 803.24 L 672.905 728.051 L 684.707 728.051 L 715.37 771.838 L 715.37 771.838 Q 716.914 774.049 718.458 776.371 L 718.458 776.371 L 718.458 776.371 Q 720.003 778.693 721.547 781.015 L 721.547 781.015 L 721.547 728.051 L 734.01 728.051 L 734.01 803.24 L 722.098 803.24 L 690.884 758.459 L 685.259 750.055 L 685.259 803.24 Z  M 803.057 772.501 L 804.049 762.992 L 830.411 762.992 L 830.411 793.841 L 830.411 793.841 Q 830.411 795.279 830.356 796.661 L 830.356 796.661 L 830.356 796.661 Q 830.3 798.043 830.3 799.37 L 830.3 799.37 L 830.411 799.481 L 830.411 799.481 Q 826.33 801.692 820.263 803.24 L 820.263 803.24 L 820.263 803.24 Q 814.197 804.788 807.8 804.788 L 807.8 804.788 L 807.8 804.788 Q 790.373 804.788 781.494 793.565 L 781.494 793.565 L 781.494 793.565 Q 772.615 782.342 772.615 766.088 L 772.615 766.088 L 772.615 766.088 Q 772.615 748.728 782.541 737.616 L 782.541 737.616 L 782.541 737.616 Q 792.468 726.503 809.234 726.503 L 809.234 726.503 L 809.234 726.503 Q 812.653 726.503 818.719 727.609 L 818.719 727.609 L 818.719 727.609 Q 824.786 728.715 829.197 731.258 L 829.197 731.258 L 825.337 740.214 L 825.337 740.214 Q 820.815 738.777 817.671 737.948 L 817.671 737.948 L 817.671 737.948 Q 814.528 737.118 809.454 737.118 L 809.454 737.118 L 809.454 737.118 Q 799.086 737.118 792.303 744.416 L 792.303 744.416 L 792.303 744.416 Q 785.52 751.714 785.52 765.977 L 785.52 765.977 L 785.52 765.977 Q 785.52 779.025 791.2 786.654 L 791.2 786.654 L 791.2 786.654 Q 796.88 794.284 807.469 794.284 L 807.469 794.284 L 807.469 794.284 Q 811.219 794.284 814.087 793.786 L 814.087 793.786 L 814.087 793.786 Q 816.954 793.289 819.05 792.736 L 819.05 792.736 L 819.05 772.501 L 803.057 772.501 Z " fill-rule="evenodd" fill="rgb(255,255,255)"/><path d=" M 769.085 380.857 Q 785.214 295.652 865.595 242.643 Q 945.976 189.634 962.105 104.429 Q 1155.874 247.52 1155.125 380.857" fill="none" vector-effect="non-scaling-stroke" stroke-width="22.087" stroke="rgb(255,153,0)" stroke-linejoin="miter" stroke-linecap="square" stroke-miterlimit="3"/><path d=" M 658.787 436.143 L 327.894 436.143 L 327.894 602" fill="none" vector-effect="non-scaling-stroke" stroke-width="22.087" stroke="rgb(255,255,255)" stroke-linejoin="miter" stroke-linecap="square" stroke-miterlimit="3"/><line x1="327.894" y1="382.086" x2="658.787" y2="382.086" vector-effect="non-scaling-stroke" stroke-width="22.087" stroke="rgb(255,255,255)" stroke-linejoin="miter" stroke-linecap="square" stroke-miterlimit="3"/><line x1="1284.83" y1="602" x2="1284.83" y2="436.143" vector-effect="non-scaling-stroke" stroke-width="22.087" stroke="rgb(255,255,255)" stroke-linejoin="miter" stroke-linecap="square" stroke-miterlimit="3"/><path d=" M 1284.83 377.99 L 1284.83 322.705 L 1615.723 599.133 L 1615.723 433.276" fill="none" vector-effect="non-scaling-stroke" stroke-width="22.087" stroke="rgb(255,255,255)" stroke-linejoin="miter" stroke-linecap="square" stroke-miterlimit="3"/><line x1="1615.723" y1="322.705" x2="1615.723" y2="377.99" vector-effect="non-scaling-stroke" stroke-width="22.087" stroke="rgb(255,255,255)" stroke-linejoin="miter" stroke-linecap="square" stroke-miterlimit="3"/><path d=" M 1058.617 436.143 L 1155.128 436.143 Q 1147.427 490.368 1116.523 532.893 C 1085.62 575.418 1021.465 611.061 962.106 610.293 C 902.748 609.525 844.971 585.647 807.689 532.893 Q 770.408 480.139 769.085 436.143" fill="none" vector-effect="non-scaling-stroke" stroke-width="22.087" stroke="rgb(0,213,255)" stroke-linejoin="miter" stroke-linecap="square" stroke-miterlimit="3"/><line x1="658.787" y1="340.314" x2="658.787" y2="381.267" vector-effect="non-scaling-stroke" stroke-width="22.087" stroke="rgb(255,255,255)" stroke-linejoin="miter" stroke-linecap="square" stroke-miterlimit="3"/></g><defs><filter id="u2NNCW350rrgcoGIXagaJ3LM8ibSHfGq" x="-200%" y="-200%" width="400%" height="400%"><feOffset xmlns="http://www.w3.org/2000/svg" in="SourceAlpha" result="offOut" dx="0" dy="0"/><feGaussianBlur xmlns="http://www.w3.org/2000/svg" in="offOut" result="blurOut" stdDeviation="0"/><feComponentTransfer xmlns="http://www.w3.org/2000/svg" in="blurOut" result="opacOut"><feFuncA xmlns="http://www.w3.org/2000/svg" type="table" tableValues="0 0.5"/></feComponentTransfer><feBlend xmlns="http://www.w3.org/2000/svg" in="SourceGraphic" in2="opacOut" mode="normal"/></filter></defs></g></svg>