<?xml version="1.0" standalone="no"?><!-- Generator: Gravit.io --><svg xmlns="http://www.w3.org/2000/svg" xmlns:xlink="http://www.w3.org/1999/xlink" style="isolation:isolate" viewBox="0 0 785 395" width="785" height="395"><defs><clipPath id="_clipPath_m8o1okpchcUVSMsg4txw8b4W7GvEGun6"><rect width="785" height="395"/></clipPath></defs><g clip-path="url(#_clipPath_m8o1okpchcUVSMsg4txw8b4W7GvEGun6)"><rect width="785" height="395" style="fill:rgb(84,122,140)"/><g style="opacity:0.32;" id="Layer 0"><g id="Group"><g id="Group"><rect x="5" y="70" width="60" height="60" transform="matrix(-1,0,0,-1,70,200)" fill="rgb(142,180,240)"/><path d=" M 60 125 L 60 100 L 35 125 L 60 125 Z " fill="rgb(95,146,170)"/></g><g id="Group"><rect x="5" y="5" width="60" height="60" transform="matrix(1,0,0,1,0,0)" fill="rgb(235,235,235)"/><path d=" M 10 10 L 10 35 L 35 10 L 10 10 Z " fill="rgb(95,146,170)"/></g><g id="Group"><rect x="135" y="5" width="60" height="60" transform="matrix(-1,0,0,-1,330,70)" fill="rgb(235,235,235)"/><path d=" M 190 60 L 190 35 L 165 60 L 190 60 Z " fill="rgb(95,146,170)"/></g><g id="Group"><rect x="200" y="200" width="60" height="60" transform="matrix(1,0,0,1,0,0)" fill="rgb(235,235,235)"/><path d=" M 205 205 L 205 230 L 230 205 L 205 205 Z " fill="rgb(95,146,170)"/></g><g id="Group"><rect x="135" y="135" width="60" height="60" transform="matrix(-1,0,0,-1,330,330)" fill="rgb(235,235,235)"/><path d=" M 190 190 L 190 165 L 165 190 L 190 190 Z " fill="rgb(95,146,170)"/></g><g id="Group"><rect x="135" y="200" width="60" height="60" transform="matrix(0,1,-1,0,395,65)" fill="rgb(142,180,240)"/><path d=" M 190 205 L 165 205 L 190 230 L 190 205 Z " fill="rgb(95,146,170)"/></g><g id="Group"><rect x="70" y="70" width="60" height="60" transform="matrix(0,-1,1,0,0,200)" fill="rgb(170,199,244)"/><path d=" M 75 125 L 100 125 L 75 100 L 75 125 Z " fill="rgb(95,146,170)"/></g><g id="Group"><rect x="135" y="265" width="60" height="60" transform="matrix(0,-1,1,0,-130,460)" fill="rgb(235,235,235)"/><path d=" M 140 320 L 165 320 L 140 295 L 140 320 Z " fill="rgb(95,146,170)"/></g><g id="Group"><rect x="135" y="330" width="60" height="60" transform="matrix(1,0,0,1,0,0)" fill="rgb(142,180,240)"/><path d=" M 140 335 L 140 360 L 165 335 L 140 335 Z " fill="rgb(95,146,170)"/></g><g id="Group"><rect x="5" y="330" width="60" height="60" transform="matrix(1,0,0,1,0,0)" fill="rgb(235,235,235)"/><path d=" M 10 335 L 10 360 L 35 335 L 10 335 Z " fill="rgb(95,146,170)"/></g><g id="Group"><rect x="70" y="265" width="60" height="60" transform="matrix(-1,0,0,-1,200,590)" fill="rgb(170,199,244)"/><path d=" M 125 320 L 125 295 L 100 320 L 125 320 Z " fill="rgb(95,146,170)"/></g><g id="Group"><rect x="70" y="135" width="60" height="60" transform="matrix(1,0,0,1,0,0)" fill="rgb(235,235,235)"/><path d=" M 75 140 L 75 165 L 100 140 L 75 140 Z " fill="rgb(95,146,170)"/></g><g id="Group"><rect x="460" y="330" width="60" height="60" transform="matrix(1,0,0,1,0,0)" fill="rgb(235,235,235)"/><path d=" M 465 335 L 465 360 L 490 335 L 465 335 Z " fill="rgb(95,146,170)"/></g><g id="Group"><rect x="395" y="265" width="60" height="60" transform="matrix(-1,0,0,-1,850,590)" fill="rgb(235,235,235)"/><path d=" M 450 320 L 450 295 L 425 320 L 450 320 Z " fill="rgb(95,146,170)"/></g><g id="Group"><rect x="395" y="330" width="60" height="60" transform="matrix(0,1,-1,0,785,-65)" fill="rgb(142,180,240)"/><path d=" M 450 335 L 425 335 L 450 360 L 450 335 Z " fill="rgb(95,146,170)"/></g><g id="Group"><rect x="330" y="265" width="60" height="60" transform="matrix(1,0,0,1,0,0)" fill="rgb(235,235,235)"/><path d=" M 335 270 L 335 295 L 360 270 L 335 270 Z " fill="rgb(95,146,170)"/></g><g id="Group"><rect x="460" y="135" width="60" height="60" transform="matrix(1,0,0,1,0,0)" fill="rgb(142,180,240)"/><path d=" M 465 140 L 465 165 L 490 140 L 465 140 Z " fill="rgb(95,146,170)"/></g><g id="Group"><rect x="460" y="200" width="60" height="60" transform="matrix(-1,0,0,-1,980,460)" fill="rgb(235,235,235)"/></g><g id="Group"><rect x="330" y="200" width="60" height="60" transform="matrix(0,-1,1,0,130,590)" fill="rgb(170,199,244)"/><path d=" M 335 255 L 360 255 L 335 230 L 335 255 Z " fill="rgb(95,146,170)"/></g><g id="Group"><rect x="265" y="5" width="60" height="60" transform="matrix(-1,0,0,-1,590,70)" fill="rgb(235,235,235)"/><path d=" M 320 60 L 320 35 L 304.298 50.702 L 295 60 L 320 60 Z " fill="rgb(95,146,170)"/></g><g id="Group"><rect x="330" y="70" width="60" height="60" transform="matrix(1,0,0,1,0,0)" fill="rgb(235,235,235)"/><path d=" M 335 75 L 335 100 L 360 75 L 335 75 Z " fill="rgb(95,146,170)"/></g><g id="Group"><rect x="330" y="5" width="60" height="60" transform="matrix(0,-1,1,0,325,395)" fill="rgb(142,180,240)"/><path d=" M 335 60 L 360 60 L 335 35 L 335 60 Z " fill="rgb(95,146,170)"/></g><g id="Group"><rect x="265" y="330" width="60" height="60" transform="matrix(-1,0,0,-1,590,720)" fill="rgb(235,235,235)"/><path d=" M 320 385 L 320 360 L 295 385 L 320 385 Z " fill="rgb(95,146,170)"/></g><g id="Group"><rect x="265" y="265" width="60" height="60" transform="matrix(0,1,-1,0,590,0)" fill="rgb(142,180,240)"/><path d=" M 320 270 L 295 270 L 320 295 L 320 270 Z " fill="rgb(95,146,170)"/></g><g id="Group"><rect x="395" y="135" width="60" height="60" transform="matrix(0,1,-1,0,590,-260)" fill="rgb(170,199,244)"/><path d=" M 450 140 L 425 140 L 450 165 L 450 140 Z " fill="rgb(95,146,170)"/></g><g id="Group"><rect x="200" y="70" width="60" height="60" transform="matrix(1,0,0,1,0,0)" fill="rgb(170,199,244)"/><path d=" M 205 75 L 205 100 L 230 75 L 205 75 Z " fill="rgb(95,146,170)"/></g><g id="Group"><rect x="655" y="265" width="60" height="60" transform="matrix(-1,0,0,-1,1370,590)" fill="rgb(142,180,240)"/><path d=" M 710 320 L 710 295 L 685 320 L 710 320 Z " fill="rgb(95,146,170)"/></g><g id="Group"><rect x="525" y="330" width="60" height="60" transform="matrix(0,-1,1,0,195,915)" fill="rgb(170,199,244)"/><path d=" M 530 385 L 555 385 L 530 360 L 530 385 Z " fill="rgb(95,146,170)"/></g><g id="Group"><rect x="720" y="330" width="60" height="60" transform="matrix(1,0,0,1,0,0)" fill="rgb(170,199,244)"/><path d=" M 725 335 L 725 360 L 750 335 L 725 335 Z " fill="rgb(95,146,170)"/></g><g id="Group"><rect x="525" y="5" width="60" height="60" transform="matrix(-1,0,0,-1,1110,70)" fill="rgb(142,180,240)"/><path d=" M 580 60 L 580 35 L 555 60 L 580 60 Z " fill="rgb(95,146,170)"/></g><g id="Group"><rect x="265" y="135" width="60" height="60" transform="matrix(-1,0,0,-1,590,330)" fill="rgb(235,235,235)"/></g><g id="Group"><rect x="525" y="135" width="60" height="60" transform="matrix(-1,0,0,-1,1110,330)" fill="rgb(235,235,235)"/><path d=" M 580 190 L 580 165 L 555 190 L 580 190 Z " fill="rgb(95,146,170)"/></g><g id="Group"><rect x="655" y="135" width="60" height="60" transform="matrix(-1,0,0,-1,1370,330)" fill="rgb(235,235,235)"/><path d=" M 710 190 L 710 165 L 685 190 L 710 190 Z " fill="rgb(95,146,170)"/></g><g id="Group"><rect x="655" y="200" width="60" height="60" transform="matrix(0,1,-1,0,915,-455)" fill="rgb(235,235,235)"/><path d=" M 710 205 L 685 205 L 710 230 L 710 205 Z " fill="rgb(95,146,170)"/></g><g id="Group"><rect x="720" y="135" width="60" height="60" transform="matrix(0,1,-1,0,915,-585)" fill="rgb(235,235,235)"/><path d=" M 725 190 L 750 190 L 725 165 L 725 190 Z " fill="rgb(95,146,170)"/></g><g id="Group"><rect x="655" y="5" width="60" height="60" transform="matrix(-1,0,0,-1,1370,70)" fill="rgb(235,235,235)"/><path d=" M 710 60 L 710 35 L 694.298 50.702 L 685 60 L 710 60 Z " fill="rgb(95,146,170)"/></g><g id="Group"><rect x="720" y="70" width="60" height="60" transform="matrix(1,0,0,1,0,0)" fill="rgb(170,199,244)"/><path d=" M 725 75 L 725 100 L 750 75 L 725 75 Z " fill="rgb(95,146,170)"/></g><g id="Group"><rect x="720" y="5" width="60" height="60" transform="matrix(0,-1,1,0,715,785)" fill="rgb(142,180,240)"/><path d=" M 725 60 L 750 60 L 725 35 L 725 60 Z " fill="rgb(95,146,170)"/></g><g id="Group"><rect x="590" y="70" width="60" height="60" transform="matrix(1,0,0,1,0,0)" fill="rgb(170,199,244)"/><path d=" M 595 75 L 595 100 L 620 75 L 595 75 Z " fill="rgb(95,146,170)"/></g><g id="Group"><rect x="395" y="70" width="60" height="60" transform="matrix(-1,0,0,-1,850,200)" fill="rgb(235,235,235)"/><path d=" M 450 125 L 450 100 L 425 125 L 450 125 Z " fill="rgb(95,146,170)"/></g></g></g></g></svg>